<?xml version="1.0" encoding="UTF-8" standalone="no" ?>
<!DOCTYPE svg PUBLIC "-//W3C//DTD SVG 1.1//EN" "http://www.w3.org/Graphics/SVG/1.1/DTD/svg11.dtd">
<svg xmlns="http://www.w3.org/2000/svg" xmlns:xlink="http://www.w3.org/1999/xlink" version="1.1" width="1024" height="1024" viewBox="0 0 1024 1024" xml:space="preserve">
<desc>Created with Fabric.js 2.3.6</desc>
<defs>
</defs>
<g id="icon-1" transform="translate(512 512) scale(8.24 8.24)" style="">
	<path d="M 77.9 31.6 c 0 0 0 -0.1 -0.1 -0.1 c 0 0 0 -0.1 0 -0.1 c -1.6 -3.9 -6.9 -7 -14.1 -8.2 c -7.2 -1.2 -14.9 -0.4 -21.3 2.2 c -6.3 2.6 -12.2 7.5 -16.3 13.4 c -4.1 5.9 -5.5 11.7 -3.9 15.6 c 0 0 0 0.1 0.1 0.1 c 0 0.1 0 0.1 0.1 0.2 c 1.6 3.9 6.9 7 14.1 8.2 c 2.2 0.4 4.5 0.6 6.7 0.6 c 5.1 0 10.1 -0.9 14.5 -2.7 c 6.3 -2.6 12.2 -7.5 16.3 -13.4 C 78 41.3 79.5 35.4 77.9 31.6 z M 74.1 32.8 c 0 0 0 0.1 0.1 0.1 c 0 0 0 0.1 0 0.1 c 0.7 1.7 0.3 4.3 -1 7.2 l -4.9 -11.9 C 71.3 29.6 73.4 31.1 74.1 32.8 z M 25.9 52.9 c 0 0 0 -0.1 -0.1 -0.1 c 0 0 0 -0.1 0 -0.1 c -0.7 -1.7 -0.3 -4.3 1 -7.2 l 4.9 11.9 C 28.7 56.1 26.6 54.6 25.9 52.9 z M 56.1 56.8 c -5.6 2.3 -12.6 3 -19.1 1.9 c -0.2 0 -0.3 -0.1 -0.5 -0.1 L 29.3 41 c 0 0 0 -0.1 0.1 -0.1 c 3.7 -5.3 9 -9.6 14.6 -11.9 c 5.6 -2.3 12.6 -3 19.1 -1.9 c 0.2 0 0.3 0.1 0.5 0.1 l 7.3 17.6 c 0 0 0 0.1 -0.1 0.1 C 67 50.1 61.7 54.5 56.1 56.8 z" style="stroke: none; stroke-width: 1; stroke-dasharray: none; stroke-linecap: butt; stroke-linejoin: miter; stroke-miterlimit: 4; fill: rgb(201,146,14); fill-rule: nonzero; opacity: 1;" transform="translate(0.042134 -6.922763) translate(-50.0421338336565, -43.07723736114603) " stroke-linecap="round" />
	<path d="M 61.8 36 l -1.4 0.6 l -0.8 -2 c -0.4 -1 -1.6 -1.5 -2.6 -1.1 c -1 0.4 -1.5 1.6 -1.1 2.6 l 0.8 2 l -2.1 0.9 l -0.8 -2 c -0.4 -1 -1.6 -1.5 -2.6 -1.1 c -1 0.4 -1.5 1.6 -1.1 2.6 l 0.8 2 l -2.1 0.9 l -0.8 -2 c -0.4 -1 -1.6 -1.5 -2.6 -1.1 c -1 0.4 -1.5 1.6 -1.1 2.6 l 0.8 2 l -2.1 0.9 l -0.8 -2 c -0.4 -1 -1.6 -1.5 -2.6 -1.1 c -1 0.4 -1.5 1.6 -1.1 2.6 l 0.8 2 l -1.4 0.6 c -1 0.4 -1.5 1.6 -1.1 2.6 c 0.3 0.8 1.1 1.2 1.9 1.2 c 0.3 0 0.5 0 0.8 -0.2 l 1.4 -0.6 l 0.8 2 c 0.3 0.8 1.1 1.2 1.9 1.2 c 0.3 0 0.5 0 0.8 -0.2 c 1 -0.4 1.5 -1.6 1.1 -2.6 l -0.8 -2 l 2.1 -0.9 l 0.8 2 c 0.3 0.8 1.1 1.2 1.9 1.2 c 0.3 0 0.5 0 0.8 -0.2 c 1 -0.4 1.5 -1.6 1.1 -2.6 l -0.8 -2 l 2.1 -0.9 l 0.8 2 c 0.3 0.8 1.1 1.2 1.9 1.2 c 0.3 0 0.5 0 0.8 -0.2 c 1 -0.4 1.5 -1.6 1.1 -2.6 l -0.8 -2 l 2.1 -0.9 l 0.8 2 c 0.3 0.8 1.1 1.2 1.9 1.2 c 0.3 0 0.5 0 0.8 -0.2 c 1 -0.4 1.5 -1.6 1.1 -2.6 l -0.8 -2 l 1.4 -0.6 c 1 -0.4 1.5 -1.6 1.1 -2.6 C 64 36.1 62.8 35.6 61.8 36 z" style="stroke: none; stroke-width: 1; stroke-dasharray: none; stroke-linecap: butt; stroke-linejoin: miter; stroke-miterlimit: 4; fill: rgb(201,146,14); fill-rule: nonzero; opacity: 1;" transform="translate(0.85 -7.269042) translate(-50.84999999999998, -42.73095778975372) " stroke-linecap="round" />
	<path d="M 91.7 76.7 H 8.3 c -2.9 0 -5.3 -2.4 -5.3 -5.3 V 15.1 c 0 -2.9 2.4 -5.3 5.3 -5.3 h 83.3 c 2.9 0 5.3 2.4 5.3 5.3 v 56.4 C 96.9 74.4 94.6 76.7 91.7 76.7 z M 8.3 13.8 c -0.7 0 -1.3 0.6 -1.3 1.3 v 56.4 c 0 0.7 0.6 1.3 1.3 1.3 h 83.3 c 0.7 0 1.3 -0.6 1.3 -1.3 V 15.1 c 0 -0.7 -0.6 -1.3 -1.3 -1.3 H 8.3 z" style="stroke: none; stroke-width: 1; stroke-dasharray: none; stroke-linecap: butt; stroke-linejoin: miter; stroke-miterlimit: 4; fill: rgb(201,146,14); fill-rule: nonzero; opacity: 1;" transform="translate(-0.05 -6.75) translate(-49.949999999999996, -43.25) " stroke-linecap="round" />
	<path d="M 50 74.7" style="stroke: rgb(201,146,14); stroke-width: 4; stroke-dasharray: none; stroke-linecap: round; stroke-linejoin: round; stroke-miterlimit: 10; fill: rgb(201,146,14); fill-rule: nonzero; opacity: 1;" transform="translate(0 24.7) translate(-50, -74.7) " stroke-linecap="round" />
	<path d="M 66.9 86.2 H 55.1 V 77 c 0 -1.1 -0.9 -2 -2 -2 s -2 0.9 -2 2 v 9.2 h -2 V 77 c 0 -1.1 -0.9 -2 -2 -2 s -2 0.9 -2 2 v 9.2 h -12 c -1.1 0 -2 0.9 -2 2 s 0.9 2 2 2 h 33.7 c 1.1 0 2 -0.9 2 -2 S 68 86.2 66.9 86.2 z" style="stroke: none; stroke-width: 1; stroke-dasharray: none; stroke-linecap: butt; stroke-linejoin: miter; stroke-miterlimit: 4; fill: rgb(201,146,14); fill-rule: nonzero; opacity: 1;" transform="translate(-0.05 32.6) translate(-49.95, -82.6) " stroke-linecap="round" />
</g>
</svg>